<?xml version="1.0" standalone="no"?>
<!DOCTYPE svg PUBLIC "-//W3C//DTD SVG 20010904//EN"
 "http://www.w3.org/TR/2001/REC-SVG-20010904/DTD/svg10.dtd">
<svg version="1.0" xmlns="http://www.w3.org/2000/svg"
 width="300.000000pt" height="300.000000pt" viewBox="0 0 300.000000 300.000000"
 preserveAspectRatio="xMidYMid meet">
<metadata>
Created by potrace 1.10, written by Peter Selinger 2001-2011
</metadata>
<g transform="translate(0.000000,300.000000) scale(0.100000,-0.100000)"
fill="#000000" stroke="none">
<path d="M2709 2536 c-132 -130 -224 -204 -237 -191 -4 3 1 11 10 16 30 17 76
239 50 239 -6 0 -36 -36 -66 -79 -31 -44 -89 -108 -129 -144 -113 -102 -247
-196 -247 -173 0 2 6 21 14 43 14 40 6 78 -12 58 -5 -6 -47 -57 -94 -115 -47
-58 -120 -136 -162 -173 -42 -38 -74 -72 -71 -77 11 -17 -122 -98 -186 -113
-24 -6 -27 -3 -39 38 -7 24 -10 51 -7 59 3 8 2 16 -3 18 -16 6 10 95 35 118
25 24 100 32 114 14 10 -16 61 -45 61 -36 0 5 -16 27 -36 50 -24 29 -48 45
-77 53 -23 6 -50 18 -61 27 -10 10 -20 16 -22 15 -2 -2 -12 -3 -21 -3 -15 0
-16 2 -4 9 16 10 -52 5 -99 -7 -14 -3 -30 -6 -37 -7 -16 -1 -53 -36 -48 -46 3
-4 -3 -22 -14 -41 -11 -18 -26 -60 -35 -93 -15 -58 -15 -60 6 -82 19 -21 20
-23 4 -29 -25 -9 -143 3 -245 25 -83 19 -367 128 -357 138 5 6 57 -11 143 -46
44 -17 51 -18 46 -5 -5 13 -2 15 18 9 13 -5 34 -9 46 -11 12 -1 27 -5 34 -9 6
-4 15 -1 20 6 6 10 9 11 9 1 0 -8 9 -11 25 -8 14 3 25 1 25 -5 0 -5 10 -8 22
-6 15 1 22 -3 20 -11 -1 -7 3 -12 10 -11 7 1 21 -1 30 -5 10 -5 37 -14 60 -21
l43 -14 -35 -1 c-19 -1 -29 -4 -22 -7 7 -3 29 -2 49 2 l35 6 -95 55 c-64 36
-106 54 -129 54 -19 0 -81 8 -139 19 -57 10 -156 22 -219 26 -177 10 -415 66
-524 122 -22 12 -27 12 -24 1 3 -7 9 -13 14 -14 11 -1 67 -26 74 -34 3 -3 12
-6 20 -7 8 -1 40 -11 70 -21 35 -12 49 -21 40 -25 -8 -4 -3 -5 11 -2 19 3 29
0 33 -12 6 -14 9 -15 15 -4 10 16 22 16 32 0 6 -10 11 -10 23 0 13 11 16 11
16 -3 0 -18 15 -22 25 -6 10 17 35 11 34 -7 0 -11 -3 -13 -6 -5 -2 6 -9 12
-15 12 -6 0 -5 -7 3 -16 12 -14 14 -14 25 1 14 18 56 12 75 -11 6 -8 25 -14
41 -14 27 0 29 -2 17 -16 -9 -11 -23 -14 -49 -10 -25 4 -31 3 -20 -5 16 -11
13 -10 -150 17 -214 35 -222 38 -281 101 -40 42 -91 115 -85 121 2 2 18 -4 35
-13 42 -21 39 -12 -5 14 -42 25 -64 27 -64 5 0 -23 20 -55 30 -49 5 3 12 0 16
-6 4 -8 3 -9 -4 -5 -22 13 -12 -4 38 -68 41 -52 62 -69 113 -91 48 -21 72 -39
105 -81 24 -30 69 -71 100 -92 101 -67 151 -107 151 -119 1 -7 5 -13 10 -13 5
0 14 -12 21 -27 17 -40 81 -91 137 -111 58 -21 73 -30 73 -44 0 -6 -10 -3 -22
8 l-23 19 19 -23 c11 -12 21 -20 24 -18 2 3 11 -2 19 -10 28 -27 27 -4 0 24
l-27 28 71 68 c68 64 72 66 90 50 10 -9 19 -22 19 -28 0 -7 -25 -36 -56 -66
l-55 -55 -19 23 c-11 13 -21 18 -25 12 -8 -13 3 -30 20 -30 7 0 16 -6 18 -12
3 -8 29 11 68 50 l62 63 23 -22 c22 -21 22 -23 8 -48 -9 -14 -26 -39 -39 -55
l-23 -29 -30 21 -29 21 -19 -20 c-17 -19 -17 -20 2 -39 26 -25 127 -35 145
-14 12 14 41 -35 118 -201 2 -5 -4 -3 -15 5 -18 14 -18 14 -5 -2 7 -10 17 -16
21 -13 4 2 16 -5 26 -16 15 -17 16 -22 4 -29 -8 -5 -18 -6 -22 -4 -9 6 -31
-46 -24 -54 3 -3 12 1 21 8 9 7 13 15 11 18 -3 2 4 12 16 22 l21 17 -25 34
c-46 61 -96 179 -76 179 6 0 6 6 -1 14 -24 29 7 24 35 -5 80 -83 195 -129 326
-129 l90 0 86 -60 c83 -56 174 -130 142 -114 -8 4 -41 25 -72 46 -47 31 -62
37 -77 28 -12 -6 -21 -6 -23 0 -2 5 -23 -3 -48 -19 -54 -33 -95 -43 -126 -29
-19 9 -21 14 -13 29 8 15 21 19 64 19 29 0 56 4 60 9 3 6 -20 7 -57 5 -40 -4
-66 -11 -71 -20 -10 -17 -48 -18 -96 -3 -52 17 -53 17 -88 39 -18 11 -33 16
-33 11 0 -13 147 -81 174 -81 9 0 16 -4 16 -8 0 -5 18 -15 39 -22 39 -12 39
-13 26 -43 -17 -42 -30 -44 -45 -7 -15 37 -21 37 -42 0 -14 -25 -22 -29 -55
-27 -33 2 -42 8 -69 49 l-32 47 -6 -122 c-13 -230 -5 -262 74 -285 25 -7 90
-27 144 -45 75 -24 100 -29 104 -19 2 7 16 -6 31 -30 71 -111 230 -198 291
-158 13 9 13 11 0 19 -9 6 -19 6 -27 -1 -29 -24 -184 62 -226 125 -8 12 -45
56 -81 97 -44 49 -84 109 -117 173 -48 97 -66 155 -34 113 13 -17 17 -18 28
-6 9 10 9 12 0 6 -8 -4 -13 -1 -13 7 0 10 7 13 21 10 11 -3 18 -11 15 -19 -3
-7 0 -11 7 -9 19 7 28 -3 111 -123 109 -159 184 -250 248 -305 30 -26 59 -47
63 -47 5 0 16 -7 25 -15 21 -19 44 -11 58 21 13 27 1 32 -18 9 -7 -8 -19 -15
-27 -15 -39 0 -168 119 -249 230 -119 163 -192 277 -184 289 6 10 12 11 31 1
32 -17 69 -51 69 -64 0 -29 95 -148 144 -180 29 -19 68 -52 85 -72 30 -33 31
-38 17 -52 -9 -9 -19 -12 -23 -8 -5 5 -2 11 5 13 6 3 12 10 12 16 -1 7 -9 2
-19 -11 -23 -26 -31 -28 -31 -6 0 8 -4 12 -10 9 -5 -3 -10 -2 -10 4 0 6 -10
16 -22 22 -14 7 -4 -9 27 -45 30 -36 54 -55 62 -51 8 3 17 5 20 5 3 0 0 7 -7
15 -17 20 -5 32 13 13 20 -20 30 -55 17 -63 -5 -3 -10 1 -10 9 0 9 -6 13 -15
10 -11 -5 -7 -12 17 -32 l31 -26 24 28 c23 28 25 28 41 11 16 -17 16 -17 -1
-12 -24 9 -66 -27 -43 -36 8 -3 25 2 38 12 13 10 29 16 36 14 7 -3 11 1 10 8
-2 7 2 13 7 14 27 2 75 38 95 70 21 34 22 57 6 96 -6 13 1 20 31 29 21 7 41
16 46 19 4 4 -41 57 -100 118 -91 93 -285 249 -450 363 -21 15 -21 16 -7 90
20 104 12 123 -9 24 -20 -92 -23 -94 -112 -94 -95 0 -219 46 -294 110 -31 27
-36 103 -14 211 8 41 15 81 16 89 1 8 7 18 12 22 7 5 7 8 0 8 -16 0 -64 -66
-92 -125 -22 -49 -43 -65 -43 -33 0 6 -12 26 -26 45 l-25 34 78 86 c43 48 69
80 58 72 -16 -11 -133 -133 -142 -148 -2 -2 -12 4 -24 15 l-21 19 68 64 c73
68 63 65 -24 -8 l-53 -44 -32 29 c-18 16 -36 32 -40 35 -5 4 12 18 37 33 62
36 59 44 -3 9 -45 -25 -52 -26 -75 -13 -14 7 -26 16 -26 19 0 3 21 14 46 25
25 10 43 20 41 22 -2 3 -24 -4 -49 -15 -38 -16 -48 -17 -59 -6 -17 16 -79 33
-64 17 6 -5 18 -12 28 -14 40 -7 13 -24 -89 -56 l-107 -33 -36 34 c-20 20 -47
37 -61 40 -15 2 -4 5 25 7 28 1 64 6 80 11 19 5 3 6 -47 3 l-76 -6 -40 36
c-21 20 -41 33 -44 31 -3 -3 -11 3 -19 12 -13 16 -12 17 3 4 30 -23 20 3 -12
34 -17 16 -39 30 -50 32 -34 5 -114 49 -135 74 l-20 24 25 -21 c56 -48 166
-80 358 -105 50 -6 92 -16 92 -21 0 -5 5 -6 10 -3 6 4 8 11 5 16 -4 5 4 9 17
9 13 0 29 5 34 10 8 8 20 6 40 -4 120 -63 320 -122 473 -138 18 -2 25 -10 26
-28 2 -14 -2 -30 -7 -37 -6 -7 -8 -18 -5 -25 3 -8 10 -1 18 17 38 82 95 169
136 205 25 22 49 37 53 35 5 -3 10 -1 12 4 3 10 22 14 49 12 14 -1 16 -11 12
-63 -4 -49 0 -76 16 -118 23 -61 26 -74 12 -65 -5 3 -13 1 -16 -5 -4 -6 -3
-10 2 -9 26 5 30 -5 28 -68 -2 -82 -14 -153 -26 -153 -5 0 -9 -5 -9 -11 0 -6
5 -9 11 -7 20 7 46 108 45 170 -1 33 3 62 8 66 18 10 65 9 60 -2 -3 -6 1 -3 9
7 8 9 18 17 22 17 10 0 132 87 137 97 6 16 261 248 306 280 66 47 42 41 -30
-7 -33 -22 -65 -37 -71 -33 -6 4 -7 1 -2 -6 12 -20 -206 -221 -299 -276 -69
-40 -146 -68 -146 -52 0 7 20 19 45 26 83 25 284 185 368 294 16 20 34 35 40
34 5 -1 20 15 32 36 17 29 24 35 28 23 4 -9 12 -16 19 -16 45 0 360 280 391
347 21 48 24 20 5 -54 -30 -120 -70 -199 -112 -224 -48 -28 -46 -35 2 -10 22
11 46 35 57 55 10 19 22 33 27 30 17 -11 165 104 278 216 l78 77 -5 -36 c-10
-71 -33 -162 -48 -191 -9 -17 -40 -55 -71 -85 -46 -46 -84 -70 -221 -136 -91
-44 -163 -83 -160 -85 2 -3 64 24 137 61 72 36 134 65 137 65 2 0 1 -5 -2 -11
-4 -6 15 1 42 15 75 37 157 131 182 208 21 65 42 226 31 233 -4 2 -67 -56
-141 -129z m18 -234 c-33 -34 -117 -91 -117 -79 0 2 21 18 48 34 26 17 58 43
71 57 14 14 27 26 30 26 3 0 -12 -17 -32 -38z m-670 -88 c-14 -15 -24 -32 -23
-38 2 -6 1 -8 -1 -4 -2 4 -57 -47 -122 -113 -65 -65 -124 -119 -131 -119 -7 0
41 53 107 118 65 64 134 138 153 164 21 27 36 40 38 32 2 -7 -8 -25 -21 -40z
m-602 -44 c5 -8 11 -8 20 0 18 15 48 1 40 -19 -5 -12 -3 -13 6 -4 6 6 18 9 27
6 11 -5 13 -3 7 7 -6 9 -4 11 5 5 9 -6 2 -17 -26 -42 l-39 -34 45 25 c40 22
51 24 82 16 20 -6 47 -19 60 -30 23 -19 23 -19 -22 -4 -46 16 -73 14 -125 -7
-16 -7 -32 -13 -35 -14 -16 -3 -80 -42 -110 -65 -41 -32 -70 -44 -70 -29 0 6
-4 8 -9 5 -5 -3 -4 12 1 34 6 24 18 42 29 45 24 8 25 26 2 19 -10 -3 -2 4 17
15 58 33 61 34 73 22 8 -8 4 -11 -16 -11 -27 0 -36 -13 -16 -25 5 -4 18 0 28
9 10 9 24 16 32 16 22 1 -21 30 -45 30 -11 0 -28 -8 -38 -17 -17 -15 -18 -15
-13 -1 9 23 53 50 67 42 7 -4 8 -3 4 4 -4 7 -3 12 3 12 5 0 13 -5 16 -10z
m-603 -360 c12 -11 20 -21 17 -23 -19 -16 -181 -117 -187 -117 -4 0 -18 21
-32 48 l-25 47 95 32 c116 38 106 37 132 13z m57 -47 c21 -18 20 -19 -59 -83
-44 -36 -80 -69 -80 -73 0 -4 39 24 86 64 l85 72 22 -22 22 -22 -62 -59 c-46
-45 -66 -58 -80 -53 -16 6 -16 5 -4 -11 12 -14 3 -12 -45 9 -50 22 -93 56 -94
75 0 5 171 118 181 119 4 1 16 -7 28 -16z m271 -138 c-7 -8 -9 -15 -4 -15 5 0
2 -5 -6 -11 -11 -8 -12 -12 -2 -16 17 -7 15 -26 -2 -20 -10 4 -13 1 -9 -10 3
-8 0 -18 -6 -23 -9 -5 -8 -9 4 -13 9 -4 13 -3 10 2 -3 5 -1 12 4 16 6 3 8 -5
5 -20 -2 -14 0 -35 6 -48 7 -13 -4 -6 -25 17 -20 23 -35 33 -35 24 0 -8 -11
-25 -25 -38 -43 -41 -187 -23 -160 20 5 8 17 5 43 -10 l35 -21 40 45 c37 44
67 59 67 34 0 -19 23 8 25 29 4 31 9 46 25 63 19 21 28 16 10 -5z m581 -490
c38 -20 74 -33 79 -30 9 5 116 -78 200 -155 l45 -42 -50 28 c-27 15 -76 45
-108 67 -44 31 -60 38 -69 29 -27 -27 -119 2 -198 62 l-35 27 -5 -33 c-5 -32
-7 -33 -50 -33 -41 0 -45 2 -45 25 0 17 6 26 20 28 11 2 27 6 35 9 8 3 18 5
23 5 4 -1 7 3 7 8 0 10 53 39 73 40 4 0 39 -16 78 -35z m-58 -119 c39 -23 59
-28 115 -28 48 -1 76 -6 99 -20 17 -10 35 -17 40 -16 17 5 142 -65 174 -98
l32 -34 -36 -15 c-20 -8 -41 -15 -46 -15 -5 0 0 -17 10 -37 23 -46 23 -52 -1
-83 l-19 -25 -88 85 c-95 93 -86 73 14 -29 35 -35 63 -65 63 -66 0 -11 -35
-13 -41 -3 -7 10 -12 9 -26 -4 -16 -17 -16 -18 0 -18 18 0 23 -15 8 -24 -11
-7 -134 107 -181 167 -19 25 -44 48 -55 51 -33 9 -97 67 -91 83 3 8 2 12 -3 9
-10 -6 -31 16 -35 36 -2 7 -6 25 -11 41 -9 34 1 76 17 73 7 -1 34 -14 61 -30z
m-379 -68 c9 -95 31 -170 56 -193 26 -23 25 -15 -1 29 -11 19 -27 70 -34 113
-17 95 -18 103 -5 103 6 0 10 -12 11 -27 0 -24 1 -25 8 -8 5 11 6 27 4 35 -4
12 -3 12 5 2 5 -8 12 -12 16 -10 4 1 18 -23 31 -55 32 -79 82 -161 127 -208
37 -38 38 -39 13 -39 -14 0 -53 11 -86 25 -34 13 -65 22 -70 20 -4 -3 -10 -1
-14 5 -3 5 -17 10 -29 10 -36 0 -74 37 -86 81 -9 33 -8 49 5 84 10 24 14 48
10 54 -3 6 -2 11 3 11 6 0 8 9 5 20 -4 13 0 20 10 20 11 0 16 -18 21 -72z
m613 -344 c-6 -7 -46 9 -42 16 2 4 -5 16 -15 28 -36 39 -21 37 20 -3 22 -21
38 -40 37 -41z"/>
<path d="M1820 801 c-11 -21 1 -35 29 -36 8 0 16 -6 19 -14 3 -9 0 -11 -9 -6
-8 5 -1 -6 15 -23 15 -17 35 -28 42 -25 8 3 12 9 9 13 -3 5 0 10 7 12 7 3 -3
21 -26 46 -39 41 -39 42 -57 21 -10 -12 -20 -16 -24 -9 -3 5 -2 10 3 10 6 0
12 7 16 15 8 22 -12 18 -24 -4z m75 -36 c28 -29 29 -34 14 -55 -9 -13 -10 -12
-5 3 4 12 -3 26 -19 41 -23 22 -31 36 -20 36 2 0 16 -11 30 -25z"/>
<path d="M1936 701 c-22 -24 -11 -54 17 -45 16 5 19 3 14 -10 -5 -13 -3 -14
14 -3 16 10 17 14 6 22 -8 6 -12 16 -10 23 3 8 -1 10 -13 5 -13 -5 -16 -3 -11
10 8 22 4 21 -17 -2z"/>
<path d="M384 2577 c-17 -46 68 -297 101 -297 6 0 22 -12 36 -26 13 -14 42
-35 64 -45 29 -15 35 -15 20 -4 -11 9 -19 21 -17 26 1 6 -2 8 -8 4 -22 -14
-80 46 -114 118 -49 102 -87 255 -41 168 8 -17 45 -63 82 -101 71 -76 76 -96
6 -28 -24 23 -43 38 -43 32 0 -5 9 -15 20 -22 11 -7 20 -17 20 -23 0 -7 -10
-5 -25 5 -21 14 -24 14 -19 1 4 -8 11 -15 17 -15 6 0 8 -3 4 -6 -11 -11 56
-59 77 -56 18 2 19 1 6 -8 -12 -10 -11 -11 8 -7 15 4 22 0 22 -10 0 -8 -4 -12
-9 -9 -5 3 -11 0 -14 -8 -6 -15 24 -17 35 -1 13 17 20 -3 8 -24 -6 -12 -7 -20
-1 -19 5 2 16 -6 25 -17 15 -20 15 -20 30 0 8 11 16 18 18 15 2 -3 8 -14 14
-25 6 -11 21 -22 33 -25 12 -3 22 -9 22 -15 0 -5 7 -9 14 -7 10 2 13 -3 9 -13
-3 -8 -1 -15 6 -15 6 0 8 5 5 10 -3 6 1 10 9 10 19 0 19 -1 5 -36 -10 -28 -10
-28 10 -9 12 10 21 21 21 26 0 4 -41 37 -90 73 -56 41 -88 71 -84 78 4 6 3 8
-3 5 -12 -8 -64 30 -60 43 1 4 -33 46 -76 93 -43 46 -87 102 -99 123 -27 52
-36 61 -44 41z m159 -231 c18 -18 21 -26 12 -30 -8 -3 -21 6 -29 19 -28 42
-19 47 17 11z"/>
<path d="M110 2553 c0 -40 11 -74 21 -67 5 3 6 -1 3 -9 -10 -26 61 -152 111
-198 57 -53 204 -151 216 -144 4 3 31 -6 59 -20 46 -23 52 -24 78 -11 25 14
25 15 5 13 -13 -1 -23 -5 -23 -9 0 -4 -14 -2 -30 4 -29 9 -30 11 -13 24 17 13
17 14 1 8 -25 -9 -22 7 5 31 l24 20 -89 63 c-48 35 -86 68 -83 72 3 5 0 12 -6
16 -8 5 -9 3 -4 -6 5 -8 3 -11 -6 -8 -8 3 -13 10 -12 16 2 6 -25 33 -60 60
-34 28 -73 62 -87 77 -38 41 -58 49 -55 22 1 -12 3 -28 4 -34 0 -7 7 -13 14
-13 22 -1 70 -47 62 -60 -5 -9 -4 -11 4 -6 12 8 111 -59 111 -75 0 -6 3 -8 8
-6 10 7 32 -19 24 -29 -4 -4 1 -4 11 -1 15 6 17 3 12 -14 -6 -19 -5 -20 15 -9
29 15 39 4 14 -16 -18 -15 -18 -15 4 -9 25 7 27 3 12 -26 -7 -13 -7 -19 0 -19
5 0 10 7 10 15 0 8 5 15 11 15 5 0 7 5 4 10 -3 6 -2 10 4 10 15 0 26 -23 13
-28 -14 -4 -6 -22 9 -22 6 0 7 5 4 10 -3 6 1 10 9 10 22 0 20 -15 -8 -44 -23
-25 -43 -36 -31 -17 3 5 0 13 -6 17 -7 4 -9 3 -6 -3 4 -7 -3 -10 -17 -9 -13 0
-24 5 -23 10 1 5 -4 11 -12 14 -9 3 -11 0 -6 -8 5 -9 4 -11 -4 -6 -6 4 -9 11
-6 16 7 12 -32 33 -45 25 -6 -4 -9 -1 -8 7 2 7 -5 12 -14 12 -10 -1 -16 2 -13
6 2 4 -19 27 -48 52 -31 27 -66 70 -84 104 -32 60 -68 179 -52 168 5 -3 6 2 3
10 -10 27 -34 18 -34 -11z m213 -168 c21 -15 36 -30 33 -32 -5 -5 -72 42 -118
84 -63 56 -73 77 -13 27 33 -28 77 -63 98 -79z"/>
<path d="M2400 2406 c-41 -43 -110 -105 -152 -139 -63 -48 -77 -64 -72 -81 3
-12 -2 -41 -11 -65 -8 -24 -13 -46 -11 -48 2 -2 33 -1 69 3 l66 7 -23 18 c-13
11 -28 19 -32 19 -4 0 1 -6 12 -14 18 -14 17 -15 -11 -12 -16 2 -31 8 -33 14
-5 17 18 83 28 77 4 -3 6 4 3 15 -4 14 2 23 21 31 14 7 26 16 26 21 0 5 5 6
10 3 6 -3 10 2 10 11 0 10 3 15 6 11 4 -3 27 18 51 48 28 34 54 55 67 56 11 0
15 3 9 6 -9 3 -3 18 18 50 17 24 29 45 27 46 -1 1 -37 -33 -78 -77z"/>
<path d="M2780 2259 c-80 -32 -167 -66 -193 -75 -27 -9 -46 -18 -44 -20 5 -5
128 38 261 90 50 20 92 34 94 31 2 -2 -12 -28 -32 -58 -35 -52 -96 -111 -141
-134 -28 -15 -227 -69 -285 -77 -9 -1 -21 -5 -28 -10 -15 -9 -35 2 -27 15 4 5
-1 9 -10 9 -9 0 -14 4 -11 8 3 5 -1 9 -9 9 -8 0 -13 -4 -12 -8 1 -4 -2 -7 -8
-7 -13 -1 -7 30 8 41 8 6 6 7 -4 4 -9 -3 -23 0 -30 6 -10 10 -10 8 0 -6 17
-21 7 -35 -13 -18 -11 10 -18 6 -35 -18 -12 -16 -54 -47 -94 -68 -83 -45 -111
-83 -82 -112 16 -15 17 -15 6 5 -8 17 -7 25 4 34 8 6 20 8 26 4 7 -4 9 -3 6 3
-4 6 4 18 18 27 14 9 25 12 25 6 0 -5 9 -2 20 8 11 9 29 25 40 34 12 11 22 13
26 7 4 -6 11 -6 20 2 11 9 18 9 26 1 9 -9 8 -12 -5 -12 -9 0 -17 -5 -17 -10 0
-25 -45 -70 -69 -71 -25 -1 -25 -1 4 -10 17 -5 111 -14 210 -19 104 -6 181
-14 183 -20 4 -11 48 -12 73 -2 9 4 49 43 88 86 50 55 69 82 62 89 -11 11
-158 -5 -218 -23 -44 -13 -6 -11 92 5 49 8 91 13 93 11 8 -8 -102 -128 -126
-137 -36 -14 -215 -2 -209 14 2 7 12 11 21 11 21 -2 20 1 -6 26 -16 15 -18 20
-6 20 8 0 23 -9 33 -20 10 -11 25 -20 34 -19 13 0 12 2 -2 8 -10 4 -18 10 -18
14 3 29 -1 30 -114 23 -80 -5 -115 -4 -115 3 0 6 7 11 16 11 8 0 97 20 196 45
100 25 184 45 187 44 3 -1 -19 -9 -49 -20 -34 -11 -42 -16 -21 -13 56 10 136
40 136 52 0 6 4 14 9 19 5 5 6 3 2 -4 -4 -7 -3 -13 2 -13 19 0 133 132 128
147 -3 8 -2 12 3 9 11 -7 34 47 29 67 -2 12 -34 2 -148 -44z m-480 -219 c0 -6
-9 -20 -20 -32 -17 -19 -20 -19 -20 -5 0 9 5 17 10 17 6 0 10 7 10 15 0 8 5
15 10 15 6 0 10 -5 10 -10z m44 -40 c3 0 5 3 5 8 -3 19 2 23 16 12 25 -21 17
-30 -21 -25 -43 5 -49 9 -38 26 5 9 10 8 19 -4 7 -10 15 -17 19 -17z m111 -70
c16 -18 16 -20 2 -20 -10 0 -14 -5 -11 -15 4 -11 -1 -15 -17 -15 l-22 0 23 25
c18 20 20 25 8 25 -9 0 -18 -6 -21 -12 -2 -7 -8 -10 -12 -6 -7 6 14 37 26 38
3 0 14 -9 24 -20z m-145 1 c0 -5 -7 -12 -16 -15 -9 -4 -14 -9 -11 -13 4 -3 13
0 22 7 12 10 18 10 30 0 8 -7 15 -17 15 -22 0 -6 -6 -5 -15 2 -8 6 -19 9 -24
6 -6 -4 -22 -4 -36 0 -25 6 -25 7 -9 25 18 20 44 26 44 10z m80 -2 c0 -5 -4
-7 -10 -4 -17 11 -11 -7 7 -21 21 -14 13 -27 -10 -18 -21 8 -30 36 -15 46 18
11 28 10 28 -3z"/>
<path d="M819 2260 c-3 -33 4 -56 23 -74 10 -10 17 -25 14 -33 -3 -8 -2 -11 3
-8 5 3 22 -17 37 -45 15 -27 32 -50 37 -50 5 0 4 7 -3 15 -7 9 -9 19 -5 23 4
4 10 2 12 -5 2 -7 11 -9 19 -6 8 3 14 0 14 -6 0 -6 -6 -11 -12 -11 -27 -1 18
-17 60 -23 37 -4 41 -3 31 9 -7 9 -20 12 -33 9 -13 -4 -16 -3 -9 2 8 6 -5 22
-43 51 -31 24 -59 41 -62 37 -4 -3 0 -10 8 -15 8 -6 11 -10 5 -10 -5 0 -3 -5
5 -10 10 -6 11 -10 3 -10 -7 0 -19 14 -28 30 -9 17 -12 30 -9 30 4 0 -1 9 -10
19 -10 11 -15 24 -12 30 4 5 -5 22 -19 38 -17 19 -25 23 -26 13z"/>
<path d="M396 2222 c-3 -6 -1 -14 6 -18 7 -4 24 -14 38 -23 16 -9 21 -10 13
-2 -6 8 -9 21 -6 30 5 13 3 14 -7 4 -11 -10 -16 -9 -25 4 -8 11 -14 12 -19 5z"/>
<path d="M2452 2107 c-60 -19 -89 -33 -80 -38 7 -5 16 -3 20 4 4 6 10 8 14 4
4 -3 1 -14 -7 -23 -13 -16 -12 -16 7 -6 11 6 26 7 33 3 11 -7 11 -10 0 -14 -9
-3 -10 -6 -2 -6 23 -2 24 20 1 40 l-23 20 24 -7 c16 -4 21 -3 17 5 -5 7 2 11
16 11 13 1 39 9 58 20 47 26 32 23 -78 -13z"/>
<path d="M842 2100 c-15 -25 -16 -38 0 -22 7 7 19 12 28 12 13 0 13 -1 0 -10
-9 -6 -10 -10 -3 -10 21 0 23 17 5 33 -16 15 -19 15 -30 -3z"/>
<path d="M2105 2053 c-19 -3 -51 -25 -85 -57 -64 -61 -119 -100 -222 -156 -40
-23 -62 -38 -48 -34 68 19 192 96 276 173 60 55 63 56 145 67 82 11 83 11 24
11 -33 0 -73 -2 -90 -4z"/>
<path d="M725 1904 c16 -16 35 -18 35 -5 0 5 8 11 18 13 9 3 -2 5 -25 5 -35 0
-40 -2 -28 -13z"/>
<path d="M1962 1885 c8 -9 131 -55 135 -51 4 4 -115 56 -129 56 -6 0 -9 -2 -6
-5z"/>
<path d="M2133 1853 c17 -18 33 -30 36 -28 2 3 -4 12 -15 19 -24 18 -12 31 15
16 40 -21 11 -57 -32 -41 -21 8 -32 5 -66 -20 -23 -16 -45 -29 -49 -29 -5 0
-17 -9 -27 -20 -19 -21 -19 -20 -60 20 -22 22 -45 40 -50 40 -5 0 -1 -6 10
-13 11 -9 15 -19 10 -27 -5 -9 -4 -11 4 -6 7 5 22 -3 37 -17 l25 -25 -53 -38
c-29 -20 -77 -55 -106 -77 -29 -22 -54 -38 -56 -36 -2 2 -13 36 -26 74 -12 39
-26 74 -31 79 -9 10 -3 -14 30 -109 11 -33 19 -61 17 -62 -1 -2 -20 -9 -42
-17 -36 -12 -39 -16 -38 -51 2 -53 40 -90 86 -81 52 10 65 21 45 40 -16 16
-34 6 -23 -13 3 -5 -4 -11 -17 -15 -31 -8 -37 -7 -37 5 0 5 5 7 10 4 6 -3 10
-1 10 5 0 7 -8 9 -19 5 -14 -4 -23 0 -31 15 -16 30 -7 47 37 67 21 9 41 19 45
20 3 2 11 -12 18 -31 6 -19 20 -46 31 -60 l20 -25 -38 -16 c-64 -27 -86 -28
-109 -6 -27 25 -39 16 -15 -10 14 -15 30 -19 69 -18 31 1 49 6 45 12 -3 6 -2
7 4 4 11 -7 133 32 133 42 0 3 -21 6 -47 6 l-48 0 -28 57 -27 56 30 30 30 31
29 -42 c29 -43 63 -105 60 -109 -2 -2 3 -13 10 -25 12 -24 49 -31 68 -12 6 6
24 12 39 13 50 5 104 18 100 25 -2 3 12 7 32 9 39 2 89 33 85 51 -2 6 8 8 26
5 23 -5 32 -1 45 18 9 13 34 32 56 42 26 11 50 33 66 57 18 29 31 39 50 39 17
0 28 7 31 20 3 11 8 18 12 15 12 -7 64 41 67 62 2 12 -3 26 -11 33 -8 7 -15
18 -15 25 0 13 -117 32 -128 21 -3 -3 6 -6 19 -6 47 0 96 -20 106 -43 9 -20 6
-27 -26 -53 -20 -17 -41 -34 -48 -38 -13 -7 -156 32 -161 45 -2 4 -10 5 -18 2
-10 -4 -12 0 -8 11 3 9 1 16 -5 16 -6 0 -11 -4 -11 -10 0 -5 -5 -10 -11 -10
-5 0 -7 4 -4 10 3 5 -3 20 -15 32 -13 15 -17 25 -10 32 7 7 15 3 26 -10 11
-13 17 -15 20 -6 8 18 28 15 42 -9 10 -16 19 -19 43 -14 24 6 29 3 29 -13 0
-13 8 -21 25 -24 14 -3 25 -1 25 3 0 5 -7 9 -15 9 -20 0 -19 20 1 35 15 11 15
12 -4 17 -15 4 -19 2 -15 -8 3 -8 0 -14 -6 -14 -6 0 -11 6 -11 14 0 14 -57 28
-105 25 -11 0 -30 2 -42 6 -16 5 -23 3 -23 -5 0 -9 -7 -7 -20 5 -11 10 -23 16
-26 12 -3 -3 4 -10 15 -17 12 -6 18 -16 15 -22 -4 -7 -3 -8 4 -4 7 4 12 2 12
-3 0 -19 -14 -12 -55 26 -27 25 -50 37 -71 38 l-32 1 31 -33z m169 -94 c90
-28 166 -51 170 -52 4 -1 -15 -26 -42 -56 l-49 -53 -58 32 c-68 38 -85 51 -53
43 19 -5 21 -3 15 16 -3 11 -2 21 3 21 6 0 13 7 16 16 4 9 2 13 -5 8 -6 -4
-15 -1 -19 6 -4 7 -20 14 -34 15 -15 2 -33 9 -41 15 -11 9 -18 9 -30 -4 -9 -9
-20 -16 -25 -16 -12 0 -21 30 -13 43 3 7 -5 1 -20 -12 -14 -12 -30 -20 -36
-16 -17 10 -13 25 6 18 10 -4 14 -2 10 4 -7 11 6 21 30 22 6 1 85 -22 175 -50z
m-216 -6 c34 -22 86 -24 101 -4 11 14 14 14 34 -6 13 -12 20 -26 16 -29 -4 -4
-13 1 -21 11 -13 18 -13 18 -24 0 -9 -16 -12 -17 -26 -6 -9 8 -19 12 -21 9 -3
-3 44 -34 105 -69 60 -35 104 -66 97 -68 -7 -2 -22 -15 -34 -28 -32 -33 -54
-29 -109 22 -26 25 -52 45 -58 45 -6 0 -5 5 2 12 8 8 15 8 27 -2 8 -7 15 -10
15 -7 0 3 3 14 7 24 6 16 5 17 -12 3 -17 -14 -18 -13 -13 2 7 17 -15 33 -41
29 -7 -1 -10 2 -7 8 7 11 -52 56 -61 47 -4 -3 -1 -6 5 -6 7 0 12 -5 12 -11 0
-6 -7 -8 -17 -5 -9 4 -19 2 -22 -3 -4 -6 -12 -6 -21 -1 -12 7 -11 12 4 29 23
25 29 26 62 4z m180 -17 c16 -16 10 -42 -12 -50 -18 -7 -54 10 -54 26 0 6 7 5
18 -5 15 -14 18 -14 32 1 10 11 11 17 2 20 -7 2 -12 8 -12 13 0 13 9 11 26 -5z
m-219 -24 c9 7 13 7 13 0 0 -6 -5 -12 -12 -14 -6 -2 36 -40 95 -83 58 -44 104
-82 101 -86 -2 -4 -20 -14 -40 -24 l-36 -17 -43 42 c-38 37 -42 45 -29 57 8 8
14 20 14 26 0 7 -9 1 -20 -13 -10 -14 -22 -21 -26 -17 -4 4 0 15 9 25 15 17
15 19 -3 35 -13 11 -22 13 -26 5 -4 -5 -1 -14 6 -18 7 -4 11 -13 9 -19 -2 -6
-16 -1 -32 14 -30 29 -35 45 -11 45 8 0 12 -4 9 -10 -3 -5 -2 -10 4 -10 18 0
21 17 6 30 -12 10 -18 10 -30 0 -16 -13 -45 -7 -45 10 0 7 8 9 21 5 18 -6 20
-4 14 15 -7 22 -6 22 16 7 17 -12 26 -14 36 -5z m-68 -63 c20 -18 67 -61 104
-97 73 -69 73 -76 8 -88 -30 -6 -37 -3 -55 22 -12 16 -47 59 -78 96 -32 37
-58 69 -58 72 0 4 7 6 15 6 8 0 15 5 15 10 0 16 10 12 49 -21z m-59 -39 c12
-16 43 -56 71 -87 44 -52 47 -59 32 -70 -22 -17 -73 -17 -73 0 0 7 -15 35 -33
62 -19 28 -42 63 -52 79 l-19 29 24 -7 c14 -3 19 -3 13 0 -18 8 -16 24 1 24 8
0 24 -13 36 -30z"/>
<path d="M1915 1853 c26 -25 96 -75 100 -71 3 3 -14 18 -38 35 -48 34 -77 51
-62 36z"/>
<path d="M1016 1808 c-31 -23 -54 -43 -51 -46 4 -5 115 76 115 84 0 8 -9 3
-64 -38z"/>
<path d="M1179 1765 c-42 -45 -88 -112 -89 -129 0 -5 17 14 38 42 20 28 52 70
70 92 45 54 33 51 -19 -5z"/>
<path d="M1841 1795 c0 -5 18 -30 39 -55 22 -25 40 -40 40 -35 0 6 -18 30 -40
55 -22 25 -39 41 -39 35z"/>
<path d="M1792 1758 c8 -13 24 -40 37 -60 12 -21 27 -38 31 -38 5 0 -9 27 -31
60 -22 33 -42 60 -45 60 -4 0 0 -10 8 -22z"/>
<path d="M1600 1763 c0 -5 9 -23 20 -41 11 -18 20 -44 20 -57 0 -14 4 -25 9
-25 6 0 8 -17 6 -37 -4 -34 -3 -35 3 -8 l8 30 7 -37 c5 -21 12 -38 16 -38 5 0
2 21 -6 48 -8 26 -18 58 -20 72 -3 14 -10 30 -15 37 -5 7 -7 16 -4 21 3 6 -5
17 -19 26 -14 9 -25 13 -25 9z"/>
<path d="M1742 1743 c2 -5 16 -35 31 -67 15 -33 30 -57 33 -54 6 7 -53 128
-62 128 -3 0 -4 -3 -2 -7z"/>
<path d="M1273 1588 c-17 -23 -14 -77 7 -126 30 -69 99 -119 190 -136 26 -5
32 -4 23 5 -6 6 -9 19 -5 28 4 12 3 14 -9 5 -16 -12 -23 -12 -59 0 -24 8 -88
56 -75 56 3 0 0 6 -7 14 -7 8 -16 12 -20 10 -3 -2 -5 7 -3 22 1 16 -2 24 -10
21 -6 -3 -12 0 -13 6 -1 7 -3 23 -4 37 -2 14 -7 28 -13 33 -6 4 -5 11 5 16 8
6 12 13 9 16 -4 3 -10 0 -16 -7z"/>
<path d="M1873 1473 c-29 -19 -29 -33 -2 -33 11 0 17 4 14 10 -4 6 -1 17 5 25
16 19 11 18 -17 -2z"/>
<path d="M1248 1283 c-28 -4 -36 -17 -19 -28 5 -3 13 0 16 5 5 8 14 5 26 -6
11 -10 30 -19 41 -21 12 -2 29 -10 39 -19 23 -21 70 -33 94 -23 15 6 9 8 -21
8 -25 1 -51 9 -65 20 -32 26 -22 32 26 19 53 -15 153 -15 189 0 16 7 27 14 25
16 -9 7 -78 -7 -73 -15 10 -16 -93 -10 -106 6 -7 8 -25 15 -39 15 -15 0 -36 7
-47 15 -19 14 -34 16 -86 8z m84 -21 c9 -9 7 -12 -9 -12 -27 0 -53 10 -53 20
0 12 49 5 62 -8z"/>
<path d="M1260 1186 c0 -23 27 -55 50 -60 16 -3 31 -14 35 -25 3 -10 12 -25
21 -31 11 -10 11 -4 -3 29 -13 29 -31 49 -60 67 -24 14 -43 23 -43 20z"/>
<path d="M1661 634 c13 -14 42 -40 64 -57 27 -20 21 -12 -19 26 -61 59 -88 77
-45 31z"/>
</g>
</svg>
